<svg width="125" height="69" viewBox="0 0 125 69" fill="none" xmlns="http://www.w3.org/2000/svg">
<g filter="url(#filter0_d_29_320)">
<path d="M15.4 40.75H33.9V43H10.4V11.5C10.4 9.35 9.05 7.5 6 6.65V6.4H15.4V40.75ZM59.2445 30.8C59.2445 39.75 53.8945 43.7 47.3445 43.7C40.7445 43.7 35.3945 39.75 35.3945 30.8C35.3945 22.15 40.7445 17.95 47.3445 17.95C53.8945 17.95 59.2445 22.05 59.2445 30.8ZM53.7945 30.8C53.7945 22.85 51.6945 19.05 47.3445 19.05C42.9945 19.05 40.8445 22.9 40.8445 30.8C40.8445 39 42.9945 42.55 47.3445 42.55C51.6945 42.55 53.7945 39 53.7945 30.8ZM73.3629 37.35C78.1629 37.35 85.2129 36.75 85.2129 45.6C85.2129 49.2 83.7629 54.05 73.4629 54.05C64.1129 54.05 61.7129 50.75 61.7129 47.6C61.7129 44.5 64.1129 42.95 66.2629 42.2C64.3629 42.2 61.7129 40.45 61.7129 37.1C61.7129 32.75 65.1629 31.45 66.2129 31.2C65.0129 29.9 64.3129 28.15 64.3129 25.8C64.3129 20.5 68.3629 17.95 73.0629 17.95C74.6629 17.95 76.2129 18.25 77.5629 18.85H84.4629V20.75H80.1129C81.1629 22 81.8129 23.7 81.8129 25.8C81.8129 31.3 77.7629 33.7 73.0629 33.7C70.8129 33.7 68.5629 33.05 67.3629 32.15C66.5629 32.4 63.8629 32.8 64.1129 35.35C64.4129 37.7 70.5629 37.35 73.3629 37.35ZM73.0629 19.1C69.9629 19.1 69.0129 21 69.0129 25.8C69.0129 30.85 69.9629 32.4 73.0629 32.4C76.1629 32.4 76.8629 30.85 76.8629 25.8C76.8629 20.95 76.1629 19.1 73.0629 19.1ZM73.4629 52.8C82.1129 52.8 83.5129 49.75 83.5129 46.5C83.5129 43.25 80.6129 42.2 76.0129 42.2H70.7129C67.5129 42.2 66.0629 44.6 66.0629 47.55C66.0629 50.1 68.2129 52.8 73.4629 52.8ZM110.075 30.8C110.075 39.75 104.725 43.7 98.1746 43.7C91.5746 43.7 86.2246 39.75 86.2246 30.8C86.2246 22.15 91.5746 17.95 98.1746 17.95C104.725 17.95 110.075 22.05 110.075 30.8ZM104.625 30.8C104.625 22.85 102.525 19.05 98.1746 19.05C93.8246 19.05 91.6746 22.9 91.6746 30.8C91.6746 39 93.8246 42.55 98.1746 42.55C102.525 42.55 104.625 39 104.625 30.8Z" fill="url(#paint0_linear_29_320)"/>
</g>
<defs>
<filter id="filter0_d_29_320" x="0" y="0.399994" width="124.075" height="67.65" filterUnits="userSpaceOnUse" color-interpolation-filters="sRGB">
<feFlood flood-opacity="0" result="BackgroundImageFix"/>
<feColorMatrix in="SourceAlpha" type="matrix" values="0 0 0 0 0 0 0 0 0 0 0 0 0 0 0 0 0 0 127 0" result="hardAlpha"/>
<feOffset dx="4" dy="4"/>
<feGaussianBlur stdDeviation="5"/>
<feComposite in2="hardAlpha" operator="out"/>
<feColorMatrix type="matrix" values="0 0 0 0 0 0 0 0 0 0 0 0 0 0 0 0 0 0 0.25 0"/>
<feBlend mode="normal" in2="BackgroundImageFix" result="effect1_dropShadow_29_320"/>
<feBlend mode="normal" in="SourceGraphic" in2="effect1_dropShadow_29_320" result="shape"/>
</filter>
<linearGradient id="paint0_linear_29_320" x1="4" y1="25" x2="113" y2="25" gradientUnits="userSpaceOnUse">
<stop stop-color="#EBD16D"/>
<stop offset="1" stop-color="#D89D4B"/>
</linearGradient>
</defs>
</svg>
