<svg width="15" height="15" viewBox="0 0 15 15" fill="none" xmlns="http://www.w3.org/2000/svg">
<path d="M7.5 13.125L6.59375 12.3125C5.54167 11.3646 4.67188 10.5469 3.98438 9.85938C3.29688 9.17188 2.75 8.55469 2.34375 8.00781C1.9375 7.46094 1.65365 6.95833 1.49219 6.5C1.33073 6.04167 1.25 5.57292 1.25 5.09375C1.25 4.11458 1.57812 3.29688 2.23438 2.64062C2.89062 1.98438 3.70833 1.65625 4.6875 1.65625C5.22917 1.65625 5.74479 1.77083 6.23438 2C6.72396 2.22917 7.14583 2.55208 7.5 2.96875C7.85417 2.55208 8.27604 2.22917 8.76562 2C9.25521 1.77083 9.77083 1.65625 10.3125 1.65625C11.2917 1.65625 12.1094 1.98438 12.7656 2.64062C13.4219 3.29688 13.75 4.11458 13.75 5.09375C13.75 5.57292 13.6693 6.04167 13.5078 6.5C13.3464 6.95833 13.0625 7.46094 12.6562 8.00781C12.25 8.55469 11.7031 9.17188 11.0156 9.85938C10.3281 10.5469 9.45833 11.3646 8.40625 12.3125L7.5 13.125ZM7.5 11.4375C8.5 10.5417 9.32292 9.77344 9.96875 9.13281C10.6146 8.49219 11.125 7.9349 11.5 7.46094C11.875 6.98698 12.1354 6.5651 12.2812 6.19531C12.4271 5.82552 12.5 5.45833 12.5 5.09375C12.5 4.46875 12.2917 3.94792 11.875 3.53125C11.4583 3.11458 10.9375 2.90625 10.3125 2.90625C9.82292 2.90625 9.36979 3.04427 8.95312 3.32031C8.53646 3.59635 8.25 3.94792 8.09375 4.375H6.90625C6.75 3.94792 6.46354 3.59635 6.04688 3.32031C5.63021 3.04427 5.17708 2.90625 4.6875 2.90625C4.0625 2.90625 3.54167 3.11458 3.125 3.53125C2.70833 3.94792 2.5 4.46875 2.5 5.09375C2.5 5.45833 2.57292 5.82552 2.71875 6.19531C2.86458 6.5651 3.125 6.98698 3.5 7.46094C3.875 7.9349 4.38542 8.49219 5.03125 9.13281C5.67708 9.77344 6.5 10.5417 7.5 11.4375Z" fill="#FF3C3C"/>
</svg>
