<svg width="70" height="70" viewBox="0 0 70 70" fill="none" xmlns="http://www.w3.org/2000/svg">
<g filter="url(#filter0_d_78_5)">
<circle cx="31" cy="31" r="24.5" stroke="url(#paint0_linear_78_5)" shape-rendering="crispEdges"/>
</g>
<path d="M28.0938 33.125L29.1875 29.5625L26.3125 27.25H29.875L31 23.75L32.125 27.25H35.6875L32.7812 29.5625L33.875 33.125L31 30.9062L28.0938 33.125ZM23.5 44.75V35.0938C22.7083 34.2188 22.0938 33.2188 21.6562 32.0938C21.2188 30.9688 21 29.7708 21 28.5C21 25.7083 21.9688 23.3438 23.9062 21.4062C25.8438 19.4688 28.2083 18.5 31 18.5C33.7917 18.5 36.1562 19.4688 38.0938 21.4062C40.0312 23.3438 41 25.7083 41 28.5C41 29.7708 40.7812 30.9688 40.3438 32.0938C39.9062 33.2188 39.2917 34.2188 38.5 35.0938V44.75L31 42.25L23.5 44.75ZM31 36C33.0833 36 34.8542 35.2708 36.3125 33.8125C37.7708 32.3542 38.5 30.5833 38.5 28.5C38.5 26.4167 37.7708 24.6458 36.3125 23.1875C34.8542 21.7292 33.0833 21 31 21C28.9167 21 27.1458 21.7292 25.6875 23.1875C24.2292 24.6458 23.5 26.4167 23.5 28.5C23.5 30.5833 24.2292 32.3542 25.6875 33.8125C27.1458 35.2708 28.9167 36 31 36ZM26 41.0312L31 39.75L36 41.0312V37.1562C35.2708 37.5729 34.4844 37.901 33.6406 38.1406C32.7969 38.3802 31.9167 38.5 31 38.5C30.0833 38.5 29.2031 38.3802 28.3594 38.1406C27.5156 37.901 26.7292 37.5729 26 37.1562V41.0312Z" fill="url(#paint1_linear_78_5)"/>
<defs>
<filter id="filter0_d_78_5" x="0" y="0" width="70" height="70" filterUnits="userSpaceOnUse" color-interpolation-filters="sRGB">
<feFlood flood-opacity="0" result="BackgroundImageFix"/>
<feColorMatrix in="SourceAlpha" type="matrix" values="0 0 0 0 0 0 0 0 0 0 0 0 0 0 0 0 0 0 127 0" result="hardAlpha"/>
<feOffset dx="4" dy="4"/>
<feGaussianBlur stdDeviation="5"/>
<feComposite in2="hardAlpha" operator="out"/>
<feColorMatrix type="matrix" values="0 0 0 0 0 0 0 0 0 0 0 0 0 0 0 0 0 0 0.25 0"/>
<feBlend mode="normal" in2="BackgroundImageFix" result="effect1_dropShadow_78_5"/>
<feBlend mode="normal" in="SourceGraphic" in2="effect1_dropShadow_78_5" result="shape"/>
</filter>
<linearGradient id="paint0_linear_78_5" x1="6" y1="31" x2="56" y2="31" gradientUnits="userSpaceOnUse">
<stop stop-color="#EBD16D"/>
<stop offset="1" stop-color="#D89D4B"/>
</linearGradient>
<linearGradient id="paint1_linear_78_5" x1="21" y1="31.625" x2="41" y2="31.625" gradientUnits="userSpaceOnUse">
<stop stop-color="#EBD16D"/>
<stop offset="1" stop-color="#D89D4B"/>
</linearGradient>
</defs>
</svg>
