<svg width="70" height="70" viewBox="0 0 70 70" fill="none" xmlns="http://www.w3.org/2000/svg">
<g filter="url(#filter0_d_78_3)">
<circle cx="31" cy="31" r="24.5" stroke="url(#paint0_linear_78_3)" shape-rendering="crispEdges"/>
</g>
<path d="M17.25 41V37.5C17.25 36.7917 17.4323 36.1406 17.7969 35.5469C18.1615 34.9531 18.6458 34.5 19.25 34.1875C20.5417 33.5417 21.8542 33.0573 23.1875 32.7344C24.5208 32.4115 25.875 32.25 27.25 32.25C28.625 32.25 29.9792 32.4115 31.3125 32.7344C32.6458 33.0573 33.9583 33.5417 35.25 34.1875C35.8542 34.5 36.3385 34.9531 36.7031 35.5469C37.0677 36.1406 37.25 36.7917 37.25 37.5V41H17.25ZM39.75 41V37.25C39.75 36.3333 39.4948 35.4531 38.9844 34.6094C38.474 33.7656 37.75 33.0417 36.8125 32.4375C37.875 32.5625 38.875 32.776 39.8125 33.0781C40.75 33.3802 41.625 33.75 42.4375 34.1875C43.1875 34.6042 43.7604 35.0677 44.1562 35.5781C44.5521 36.0885 44.75 36.6458 44.75 37.25V41H39.75ZM27.25 31C25.875 31 24.6979 30.5104 23.7187 29.5312C22.7396 28.5521 22.25 27.375 22.25 26C22.25 24.625 22.7396 23.4479 23.7187 22.4687C24.6979 21.4896 25.875 21 27.25 21C28.625 21 29.8021 21.4896 30.7812 22.4687C31.7604 23.4479 32.25 24.625 32.25 26C32.25 27.375 31.7604 28.5521 30.7812 29.5312C29.8021 30.5104 28.625 31 27.25 31ZM39.75 26C39.75 27.375 39.2604 28.5521 38.2812 29.5312C37.3021 30.5104 36.125 31 34.75 31C34.5208 31 34.2292 30.974 33.875 30.9219C33.5208 30.8698 33.2292 30.8125 33 30.75C33.5625 30.0833 33.9948 29.3437 34.2969 28.5312C34.599 27.7187 34.75 26.875 34.75 26C34.75 25.125 34.599 24.2812 34.2969 23.4687C33.9948 22.6562 33.5625 21.9167 33 21.25C33.2917 21.1458 33.5833 21.0781 33.875 21.0469C34.1667 21.0156 34.4583 21 34.75 21C36.125 21 37.3021 21.4896 38.2812 22.4687C39.2604 23.4479 39.75 24.625 39.75 26ZM19.75 38.5H34.75V37.5C34.75 37.2708 34.6927 37.0625 34.5781 36.875C34.4635 36.6875 34.3125 36.5417 34.125 36.4375C33 35.875 31.8646 35.4531 30.7187 35.1719C29.5729 34.8906 28.4167 34.75 27.25 34.75C26.0833 34.75 24.9271 34.8906 23.7812 35.1719C22.6354 35.4531 21.5 35.875 20.375 36.4375C20.1875 36.5417 20.0365 36.6875 19.9219 36.875C19.8073 37.0625 19.75 37.2708 19.75 37.5V38.5ZM27.25 28.5C27.9375 28.5 28.526 28.2552 29.0156 27.7656C29.5052 27.276 29.75 26.6875 29.75 26C29.75 25.3125 29.5052 24.724 29.0156 24.2344C28.526 23.7448 27.9375 23.5 27.25 23.5C26.5625 23.5 25.974 23.7448 25.4844 24.2344C24.9948 24.724 24.75 25.3125 24.75 26C24.75 26.6875 24.9948 27.276 25.4844 27.7656C25.974 28.2552 26.5625 28.5 27.25 28.5Z" fill="url(#paint1_linear_78_3)"/>
<defs>
<filter id="filter0_d_78_3" x="0" y="0" width="70" height="70" filterUnits="userSpaceOnUse" color-interpolation-filters="sRGB">
<feFlood flood-opacity="0" result="BackgroundImageFix"/>
<feColorMatrix in="SourceAlpha" type="matrix" values="0 0 0 0 0 0 0 0 0 0 0 0 0 0 0 0 0 0 127 0" result="hardAlpha"/>
<feOffset dx="4" dy="4"/>
<feGaussianBlur stdDeviation="5"/>
<feComposite in2="hardAlpha" operator="out"/>
<feColorMatrix type="matrix" values="0 0 0 0 0 0 0 0 0 0 0 0 0 0 0 0 0 0 0.25 0"/>
<feBlend mode="normal" in2="BackgroundImageFix" result="effect1_dropShadow_78_3"/>
<feBlend mode="normal" in="SourceGraphic" in2="effect1_dropShadow_78_3" result="shape"/>
</filter>
<linearGradient id="paint0_linear_78_3" x1="6" y1="31" x2="56" y2="31" gradientUnits="userSpaceOnUse">
<stop stop-color="#EBD16D"/>
<stop offset="1" stop-color="#D89D4B"/>
</linearGradient>
<linearGradient id="paint1_linear_78_3" x1="17.25" y1="31" x2="44.75" y2="31" gradientUnits="userSpaceOnUse">
<stop stop-color="#EBD16D"/>
<stop offset="1" stop-color="#D89D4B"/>
</linearGradient>
</defs>
</svg>
