<svg width="70" height="70" viewBox="0 0 70 70" fill="none" xmlns="http://www.w3.org/2000/svg">
<g filter="url(#filter0_d_78_4)">
<circle cx="31" cy="31" r="24.5" stroke="url(#paint0_linear_78_4)" shape-rendering="crispEdges"/>
</g>
<path d="M35.125 36.875L36.875 35.125L32.25 30.5V24.75H29.75V31.5L35.125 36.875ZM31 43.5C29.2708 43.5 27.6458 43.1719 26.125 42.5156C24.6042 41.8594 23.2812 40.9688 22.1562 39.8438C21.0312 38.7188 20.1406 37.3958 19.4844 35.875C18.8281 34.3542 18.5 32.7292 18.5 31C18.5 29.2708 18.8281 27.6458 19.4844 26.125C20.1406 24.6042 21.0312 23.2812 22.1562 22.1562C23.2812 21.0312 24.6042 20.1406 26.125 19.4844C27.6458 18.8281 29.2708 18.5 31 18.5C32.7292 18.5 34.3542 18.8281 35.875 19.4844C37.3958 20.1406 38.7188 21.0312 39.8438 22.1562C40.9688 23.2812 41.8594 24.6042 42.5156 26.125C43.1719 27.6458 43.5 29.2708 43.5 31C43.5 32.7292 43.1719 34.3542 42.5156 35.875C41.8594 37.3958 40.9688 38.7188 39.8438 39.8438C38.7188 40.9688 37.3958 41.8594 35.875 42.5156C34.3542 43.1719 32.7292 43.5 31 43.5ZM31 41C33.7708 41 36.1302 40.026 38.0781 38.0781C40.026 36.1302 41 33.7708 41 31C41 28.2292 40.026 25.8698 38.0781 23.9219C36.1302 21.974 33.7708 21 31 21C28.2292 21 25.8698 21.974 23.9219 23.9219C21.974 25.8698 21 28.2292 21 31C21 33.7708 21.974 36.1302 23.9219 38.0781C25.8698 40.026 28.2292 41 31 41Z" fill="url(#paint1_linear_78_4)"/>
<defs>
<filter id="filter0_d_78_4" x="0" y="0" width="70" height="70" filterUnits="userSpaceOnUse" color-interpolation-filters="sRGB">
<feFlood flood-opacity="0" result="BackgroundImageFix"/>
<feColorMatrix in="SourceAlpha" type="matrix" values="0 0 0 0 0 0 0 0 0 0 0 0 0 0 0 0 0 0 127 0" result="hardAlpha"/>
<feOffset dx="4" dy="4"/>
<feGaussianBlur stdDeviation="5"/>
<feComposite in2="hardAlpha" operator="out"/>
<feColorMatrix type="matrix" values="0 0 0 0 0 0 0 0 0 0 0 0 0 0 0 0 0 0 0.25 0"/>
<feBlend mode="normal" in2="BackgroundImageFix" result="effect1_dropShadow_78_4"/>
<feBlend mode="normal" in="SourceGraphic" in2="effect1_dropShadow_78_4" result="shape"/>
</filter>
<linearGradient id="paint0_linear_78_4" x1="6" y1="31" x2="56" y2="31" gradientUnits="userSpaceOnUse">
<stop stop-color="#EBD16D"/>
<stop offset="1" stop-color="#D89D4B"/>
</linearGradient>
<linearGradient id="paint1_linear_78_4" x1="18.5" y1="31" x2="43.5" y2="31" gradientUnits="userSpaceOnUse">
<stop stop-color="#EBD16D"/>
<stop offset="1" stop-color="#D89D4B"/>
</linearGradient>
</defs>
</svg>
