<svg width="70" height="70" viewBox="0 0 70 70" fill="none" xmlns="http://www.w3.org/2000/svg">
<g filter="url(#filter0_d_78_6)">
<circle cx="31" cy="31" r="24.5" stroke="url(#paint0_linear_78_6)" shape-rendering="crispEdges"/>
</g>
<path d="M31.5 42.9375L29.6875 41.3125C27.5833 39.4167 25.8438 37.7812 24.4688 36.4062C23.0938 35.0312 22 33.7969 21.1875 32.7031C20.375 31.6094 19.8073 30.6042 19.4844 29.6875C19.1615 28.7708 19 27.8333 19 26.875C19 24.9167 19.6562 23.2812 20.9688 21.9688C22.2812 20.6562 23.9167 20 25.875 20C26.9583 20 27.9896 20.2292 28.9688 20.6875C29.9479 21.1458 30.7917 21.7917 31.5 22.625C32.2083 21.7917 33.0521 21.1458 34.0312 20.6875C35.0104 20.2292 36.0417 20 37.125 20C39.0833 20 40.7188 20.6562 42.0312 21.9688C43.3438 23.2812 44 24.9167 44 26.875C44 27.8333 43.8385 28.7708 43.5156 29.6875C43.1927 30.6042 42.625 31.6094 41.8125 32.7031C41 33.7969 39.9062 35.0312 38.5312 36.4062C37.1562 37.7812 35.4167 39.4167 33.3125 41.3125L31.5 42.9375ZM31.5 39.5625C33.5 37.7708 35.1458 36.2344 36.4375 34.9531C37.7292 33.6719 38.75 32.5573 39.5 31.6094C40.25 30.6615 40.7708 29.8177 41.0625 29.0781C41.3542 28.3385 41.5 27.6042 41.5 26.875C41.5 25.625 41.0833 24.5833 40.25 23.75C39.4167 22.9167 38.375 22.5 37.125 22.5C36.1458 22.5 35.2396 22.776 34.4062 23.3281C33.5729 23.8802 33 24.5833 32.6875 25.4375H30.3125C30 24.5833 29.4271 23.8802 28.5938 23.3281C27.7604 22.776 26.8542 22.5 25.875 22.5C24.625 22.5 23.5833 22.9167 22.75 23.75C21.9167 24.5833 21.5 25.625 21.5 26.875C21.5 27.6042 21.6458 28.3385 21.9375 29.0781C22.2292 29.8177 22.75 30.6615 23.5 31.6094C24.25 32.5573 25.2708 33.6719 26.5625 34.9531C27.8542 36.2344 29.5 37.7708 31.5 39.5625Z" fill="url(#paint1_linear_78_6)"/>
<defs>
<filter id="filter0_d_78_6" x="0" y="0" width="70" height="70" filterUnits="userSpaceOnUse" color-interpolation-filters="sRGB">
<feFlood flood-opacity="0" result="BackgroundImageFix"/>
<feColorMatrix in="SourceAlpha" type="matrix" values="0 0 0 0 0 0 0 0 0 0 0 0 0 0 0 0 0 0 127 0" result="hardAlpha"/>
<feOffset dx="4" dy="4"/>
<feGaussianBlur stdDeviation="5"/>
<feComposite in2="hardAlpha" operator="out"/>
<feColorMatrix type="matrix" values="0 0 0 0 0 0 0 0 0 0 0 0 0 0 0 0 0 0 0.25 0"/>
<feBlend mode="normal" in2="BackgroundImageFix" result="effect1_dropShadow_78_6"/>
<feBlend mode="normal" in="SourceGraphic" in2="effect1_dropShadow_78_6" result="shape"/>
</filter>
<linearGradient id="paint0_linear_78_6" x1="6" y1="31" x2="56" y2="31" gradientUnits="userSpaceOnUse">
<stop stop-color="#EBD16D"/>
<stop offset="1" stop-color="#D89D4B"/>
</linearGradient>
<linearGradient id="paint1_linear_78_6" x1="19" y1="31.4688" x2="44" y2="31.4688" gradientUnits="userSpaceOnUse">
<stop stop-color="#EBD16D"/>
<stop offset="1" stop-color="#D89D4B"/>
</linearGradient>
</defs>
</svg>
